<svg width="121" height="17" viewBox="0 0 121 17" fill="none" xmlns="http://www.w3.org/2000/svg">
<path d="M8.5 0L10.4084 5.87336L16.584 5.87336L11.5878 9.50329L13.4962 15.3766L8.5 11.7467L3.50383 15.3766L5.41219 9.50329L0.416019 5.87336L6.59163 5.87336L8.5 0Z" fill="#FBC400"/>
<path d="M34.5 0L36.4084 5.87336L42.584 5.87336L37.5878 9.50329L39.4962 15.3766L34.5 11.7467L29.5038 15.3766L31.4122 9.50329L26.416 5.87336L32.5916 5.87336L34.5 0Z" fill="#FBC400"/>
<path d="M60.5 0L62.4084 5.87336L68.584 5.87336L63.5878 9.50329L65.4962 15.3766L60.5 11.7467L55.5038 15.3766L57.4122 9.50329L52.416 5.87336L58.5916 5.87336L60.5 0Z" fill="#FBC400"/>
<path d="M86.5 0L88.4084 5.87336L94.584 5.87336L89.5878 9.50329L91.4962 15.3766L86.5 11.7467L81.5038 15.3766L83.4122 9.50329L78.416 5.87336L84.5916 5.87336L86.5 0Z" fill="#FBC400"/>
<path d="M112.5 0L114.408 5.87336L120.584 5.87336L115.588 9.50329L117.496 15.3766L112.5 11.7467L107.504 15.3766L109.412 9.50329L104.416 5.87336L110.592 5.87336L112.5 0Z" fill="#FBC400"/>
</svg>
